<?xml version="1.0" encoding="utf-8"?>
<!-- Generator: Adobe Illustrator 23.0.3, SVG Export Plug-In . SVG Version: 6.00 Build 0)  -->
<svg version="1.1" id="Layer_1" xmlns="http://www.w3.org/2000/svg" xmlns:xlink="http://www.w3.org/1999/xlink" x="0px" y="0px"
	 viewBox="0 0 60 60" style="enable-background:new 0 0 60 60;" xml:space="preserve">
<style type="text/css">
	.st0{fill:#FFFFFF;}
	.st1{fill:#FFFFFF;}
</style>
<g>
	<path class="st0" d="M37.08,25.9c0.27,0.64,0.49,1.3,0.81,1.91c0.39,0.74,0.2,1.27-0.45,1.7c-0.14,0.09-0.28,0.19-0.41,0.28
		c-1.87,1.22-1.83,3.47,0.08,4.6c1.48,0.87,1.48,0.88,0.89,2.52c-0.08,0.22-0.16,0.44-0.24,0.65c-0.52,1.39-0.61,1.44-2.04,1.17
		c-1.49-0.29-2.88,0.33-3.44,1.75c-0.2,0.51,0.04,1.22,0.18,1.82c0.32,1.33,0.3,1.4-0.94,1.99c-0.09,0.04-0.17,0.1-0.26,0.14
		c-2.28,1.05-2,1.06-3.4-0.9c-0.87-1.22-3.28-1.08-4.03,0.22c-0.07,0.12-0.12,0.24-0.18,0.36c-0.8,1.44-0.87,1.47-2.41,0.91
		c-0.09-0.03-0.19-0.07-0.28-0.11c-1.92-0.7-1.92-0.7-1.54-2.7c0.34-1.79-1.38-3.36-3.14-2.88c-1.86,0.51-1.86,0.51-2.69-1.27
		c-0.11-0.24-0.19-0.5-0.33-0.72c-0.52-0.84-0.29-1.57,0.53-1.9c1.72-0.69,1.67-2.05,1.48-3.47c-0.05-0.36-0.4-0.73-0.7-1
		c-0.29-0.26-0.69-0.4-1.03-0.59c-0.67-0.38-0.98-0.89-0.6-1.65c0.06-0.12,0.1-0.25,0.14-0.37c0.9-2.48,0.69-2.36,3.13-1.88
		c1.36,0.27,2.97-1.48,2.62-2.83c-0.54-2.06-1-2.11,1.58-3.22c1.46-0.63,1.57-0.62,2.47,0.76c0.69,1.05,2.6,1.64,3.64,0.96
		c0.48-0.31,0.8-0.96,1.07-1.51c0.42-0.86,0.95-1.05,1.85-0.72c2.43,0.9,2.42,0.86,2.14,3.44c-0.04,0.37,0.18,0.81,0.4,1.14
		c0.24,0.35,0.64,0.58,0.92,0.91c0.45,0.53,0.97,0.59,1.62,0.42c0.7-0.18,1.42-0.24,2.13-0.36C36.8,25.61,36.94,25.75,37.08,25.9z
		 M29.41,28.71c-2.13-2.14-5.64-2.16-7.72-0.04c-2.11,2.15-2.1,5.61,0.04,7.72c2.12,2.09,5.55,2.11,7.65,0.03
		C31.52,34.3,31.53,30.84,29.41,28.71z"/>
	<path class="st1" d="M36.18,27.89c-0.22,0.14-0.55,0.31-0.83,0.54c-0.88,0.69-1.21-0.18-1.72-0.57c-0.52-0.4-0.56-0.79-0.16-1.35
		c0.89-1.25,0.41-2.43-1.06-2.65c-0.76-0.11-0.94-0.52-0.86-1.17c0.07-0.59-0.31-1.33,0.77-1.52c1.63-0.27,2.08-1.36,1.17-2.75
		c-0.62-0.94,0.27-1.21,0.64-1.71c0.39-0.53,0.79-0.53,1.35-0.12c1.22,0.91,2.43,0.42,2.64-1.09c0.14-0.96,0.77-0.83,1.4-0.84
		c0.63-0.02,1.16,0,1.28,0.86c0.22,1.52,1.38,2.03,2.6,1.15c0.8-0.58,1.18-0.05,1.67,0.41c0.5,0.47,0.73,0.88,0.25,1.54
		c-0.89,1.23-0.43,2.36,1.07,2.61c0.76,0.13,0.88,0.57,0.83,1.2c-0.05,0.62,0.23,1.31-0.82,1.5c-1.6,0.28-1.99,1.32-1.05,2.69
		c0.57,0.83-0.12,1.12-0.51,1.56c-0.39,0.45-0.75,0.78-1.42,0.3c-1.3-0.93-2.41-0.49-2.69,1.06c-0.18,0.99-0.84,0.82-1.49,0.87
		c-0.71,0.05-1.13-0.17-1.24-0.94C37.87,28.62,36.98,27.85,36.18,27.89z M36.15,22.44c-0.02,1.85,1.41,3.34,3.22,3.35
		c1.75,0.01,3.22-1.47,3.23-3.25s-1.41-3.25-3.18-3.29C37.68,19.21,36.17,20.68,36.15,22.44z"/>
</g>
</svg>
