<?xml version="1.0" encoding="utf-8"?>
<!-- Generator: Adobe Illustrator 23.0.3, SVG Export Plug-In . SVG Version: 6.00 Build 0)  -->
<svg version="1.1" id="Layer_1" xmlns="http://www.w3.org/2000/svg" xmlns:xlink="http://www.w3.org/1999/xlink" x="0px" y="0px"
	 viewBox="0 0 60 60" style="enable-background:new 0 0 60 60;" xml:space="preserve">
<style type="text/css">
	.st0{fill:#FFFFFF;}
	.st1{fill:#FFFFFF;}
</style>
<g>
	<path class="st0" d="M26.98,40.85l6.41-0.01c0.73,0,1.26-0.59,1.26-1.32l-0.01-6.02c0-0.73-0.6-1.32-1.33-1.32l0,0
		c-0.73,0-1.32,0.59-1.32,1.32l0,0L32,38.21l-5.03,0.01l-0.02-17.3c0-0.69-0.47-1.29-1.13-1.47l-1.21-0.32l7.37-0.01l0.01,4.71
		c0,0.73,0.6,1.32,1.33,1.32s1.32-0.59,1.32-1.32l-0.01-6.02c0-0.73-0.53-1.32-1.27-1.32L16.09,16.5c-0.73,0-1.32,0.59-1.32,1.32
		l0.03,21.75c0,0.69,0.47,1.29,1.13,1.47l9.15,2.43c0.81,0.22,1.65-0.27,1.86-1.08c0.03-0.13,0.05-0.26,0.05-0.39L26.98,40.85z"/>
	<path class="st1" d="M39.66,22.47c-0.52-0.52-1.35-0.52-1.87-0.01s-0.52,1.34-0.01,1.85l0.01,0.01l2.97,2.97l-9.98,0.05
		c-0.73,0-1.32,0.59-1.32,1.32l0,0c0,0.73,0.6,1.31,1.33,1.31l9.96-0.05l-2.94,2.96c-0.51,0.51-0.51,1.34,0,1.85l0.01,0.01
		c0.52,0.51,1.36,0.51,1.87-0.01l0,0l5.18-5.22c0.51-0.51,0.51-1.34,0-1.85L39.66,22.47z"/>
</g>
</svg>
