<?xml version="1.0" encoding="utf-8"?>
<!-- Generator: Adobe Illustrator 23.0.3, SVG Export Plug-In . SVG Version: 6.00 Build 0)  -->
<svg
  version="1.1"
  id="Layer_1"
  xmlns="http://www.w3.org/2000/svg"
  xmlns:xlink="http://www.w3.org/1999/xlink"
  x="0px"
  y="0px"
  viewBox="0 0 60 60"
  style="enable-background:new 0 0 60 60;"
  xml:space="preserve"
>
<style type="text/css">
	.st0{fill:#FFFFFF;}
	.st1{fill:#FFFFFF;}
</style>
<g>
	<path class="st0" d="M40.19,24.48c-0.01-5.87-4.77-10.62-10.64-10.61c-5.06,0.01-9.28,3.55-10.35,8.28l4.63-0.01
		c0.93-2.25,3.14-3.84,5.72-3.85c3.42,0,6.2,2.77,6.21,6.19c0,1.16-0.32,2.25-0.88,3.18l-0.04-0.01c-0.74,1.23-1.85,2.25-3.21,2.66
		c-3.25,0.97-4.42,1.56-4.42,4.91l0-0.37l0.01,4.99l4.43-0.01l-0.01-3.74C31.55,34.83,32,35,33.27,34.45l0,0
		C37.31,32.94,40.19,29.05,40.19,24.48z"/>
	<circle class="st1" cx="29.59" cy="44.86" r="2.66"/>
</g>
</svg>
